<svg xmlns="http://www.w3.org/2000/svg" viewBox="0 0 450.06 386.83"><defs><style>.cls-1,.cls-20{fill:#222221;}.cls-1{opacity:0.25;}.cls-2{fill:#eba58e;}.cls-3{fill:#dd8c76;}.cls-4{fill:#8e0033;}.cls-5{fill:#770031;}.cls-6{fill:#af0039;}.cls-7{fill:#422c4f;}.cls-8{fill:#fff;}.cls-9{fill:#a34262;}.cls-10{fill:#df4268;}.cls-11{fill:#495375;}.cls-12{fill:#c7d2d7;}.cls-13{fill:#99a3b0;}.cls-14{fill:#f2c8c2;}.cls-15{fill:#e36e90;}.cls-16{fill:#f0bf6c;}.cls-17{fill:#eba25d;}.cls-18{fill:#454f6b;}.cls-19{fill:#f2c9ad;}.cls-20{opacity:0.19;}.cls-21{fill:#bc0849;}.cls-22{fill:#8e0335;}.cls-23{fill:#94003b;}</style></defs><g id="Layer_2" data-name="Layer 2"><g id="OBJECT"><ellipse class="cls-1" cx="223.12" cy="379.33" rx="223.12" ry="7.5"/><path class="cls-2" d="M118.58,140.7H104.42a4.77,4.77,0,0,0-4.77,4.77v8.85a4.77,4.77,0,0,0,4.77,4.77h11.46v-3.52h0a13,13,0,0,0,9.21-3.81l1.72-1.73Z"/><polygon class="cls-2" points="118.58 140.7 126.81 150.03 162.16 141.82 157.27 128.74 118.58 140.7"/><polygon class="cls-3" points="157.27 128.74 155.54 129.27 154.99 143.48 162.16 141.82 157.27 128.74"/><path class="cls-4" d="M225,78.15h0a11.1,11.1,0,0,0-15.25,1.49L173,122.17l-6.63,2.24,6.16,16.47,3.48-.76a28.12,28.12,0,0,0,14.4-8.08l35.7-37.51A11.1,11.1,0,0,0,225,78.15Z"/><path class="cls-5" d="M172.77,141.4l-.2-.52-6.16-16.47-.61-1.63a1.8,1.8,0,0,0-2.32-1.06L157.42,124a1.81,1.81,0,0,0-1.06,2.32l.5,1.32,5.76,15.4.71,1.9a1.8,1.8,0,0,0,2.32,1.06l6.06-2.27A1.81,1.81,0,0,0,172.77,141.4Z"/><path class="cls-6" d="M212,81.41a11.18,11.18,0,0,1,13.72-2.57c-.25-.24-.51-.47-.79-.69h0a11.1,11.1,0,0,0-15.25,1.49L173,122.17l-6.63,2.24,1,2.64,7.45-2.51Z"/><path class="cls-7" d="M212.2,166.67,135.76,187a20.56,20.56,0,0,0-12.34,30.44L168,291.73l24.81-11-35.65-67.8,72.6-15.17a23.79,23.79,0,0,0,17.61-31.09H212.2Z"/><path class="cls-2" d="M189.57,285.8,187.71,283l-14.1,6.25,3.32,6,15.71-4.41Q191.2,288.28,189.57,285.8Z"/><path class="cls-8" d="M185.7,298l-1.32,3.35,1.75-1.24a4.15,4.15,0,0,1,2.38-.75h8.23a79.4,79.4,0,0,0-4.1-8.46l-15.71,4.41.95,1.73H185A.7.7,0,0,1,185.7,298Z"/><path class="cls-7" d="M167.63,312.36h33.3l-.6-2.36a80.23,80.23,0,0,0-3.59-10.68h-8.23a4.15,4.15,0,0,0-2.38.75l-1.75,1.24L185.7,298a.7.7,0,0,0-.66-1h-7.16l-5.29,5a12.94,12.94,0,0,1-8.85,3.51h-3.61a9.33,9.33,0,0,0-8.19,4.87l6.86,1.23A50.32,50.32,0,0,0,167.63,312.36Z"/><path class="cls-8" d="M167.63,312.36a50.32,50.32,0,0,1-8.83-.78l-6.86-1.23a9.21,9.21,0,0,0-1.14,4.14l10.49.95c1.66.15,3.33.22,5,.22h35.51l-.86-3.3Z"/><polygon class="cls-7" points="187.71 282.98 173.61 289.23 175.14 292 190.49 287.22 187.71 282.98"/><path class="cls-9" d="M94.27,159.82H90.66l-9.28,32.86a103.69,103.69,0,0,0,8.17,76.79l4.52,1.7Z"/><path class="cls-10" d="M81.38,192.68l9.28-32.86H87.28L68.22,230.58a14.6,14.6,0,0,1-14.09,10.79.91.91,0,0,0-.91.91v13.5l36.33,13.69A103.69,103.69,0,0,1,81.38,192.68Z"/><circle class="cls-7" cx="50.74" cy="326.83" r="50.74"/><circle class="cls-11" cx="50.74" cy="326.83" r="36.54"/><circle class="cls-12" cx="50.74" cy="326.83" r="29.83"/><path class="cls-13" d="M50.74,297a29.61,29.61,0,0,0-15.39,4.28,26.09,26.09,0,0,1,6.48-.81,26.36,26.36,0,1,1-6.48,51.92A29.83,29.83,0,1,0,50.74,297Z"/><circle class="cls-13" cx="50.74" cy="326.83" r="13.16"/><circle class="cls-9" cx="50.74" cy="326.83" r="8.91" transform="translate(-216.24 131.61) rotate(-45)"/><circle class="cls-7" cx="311.39" cy="326.83" r="50.74"/><circle class="cls-11" cx="311.39" cy="326.83" r="36.54"/><circle class="cls-12" cx="311.39" cy="326.83" r="29.83"/><path class="cls-13" d="M311.39,297A29.61,29.61,0,0,0,296,301.28a26.09,26.09,0,0,1,6.48-.81A26.36,26.36,0,1,1,296,352.39,29.83,29.83,0,1,0,311.39,297Z"/><circle class="cls-13" cx="311.39" cy="326.83" r="13.16"/><circle class="cls-9" cx="311.39" cy="326.83" r="8.91" transform="translate(-139.9 315.92) rotate(-45)"/><path class="cls-8" d="M53.19,259.63c26.14.82,48.49,19.11,55.44,44.32l1.13,4.09,1.23.61-2.36-8.55c-6.95-25.2-29.3-43.5-55.44-44.32-.67,0-1.35,0-2,0a62.82,62.82,0,0,0-31.53,8.41l1.73,2.89a62.86,62.86,0,0,1,29.8-7.46C51.84,259.59,52.52,259.6,53.19,259.63Z"/><path class="cls-14" d="M58,282.59,109.76,308,108.63,304c-6.95-25.21-29.3-43.5-55.44-44.32-.67,0-1.35,0-2,0a62.86,62.86,0,0,0-29.8,7.46l9.3,15.54Z"/><path class="cls-10" d="M113.44,312.49H89.23a41,41,0,0,1-29-12h0a41,41,0,0,0-29-12H2.48l9.09-9.08A56,56,0,0,1,51.16,263h0a56,56,0,0,1,47.22,25.89Z"/><path class="cls-10" d="M94.27,159.82,85,192.68a103.77,103.77,0,0,0,9.09,78.49l4.64,8.37a74.5,74.5,0,0,0,65.15,38.38H392.42l-8.19-29.72a120.51,120.51,0,0,0-52.79-70.5l-14.8-9.16H189.49v5.55a8.61,8.61,0,0,0,5.85,8.15h0a37.28,37.28,0,0,1,25.11,30.81h0a37.29,37.29,0,0,1-37,41.84H164.84a52.08,52.08,0,0,1-44-24.16l-8.62-13.58a67.67,67.67,0,0,1-9.06-50.41l10-46.92Z"/><path class="cls-7" d="M316.64,208.54H179.22V192.23H288.8A28.28,28.28,0,0,1,309,200.75Z"/><path class="cls-14" d="M236.75,320.17h-61.7a76.78,76.78,0,0,1-67.13-39.54l-4.63-8.36A105.33,105.33,0,0,1,94,192.06a34.41,34.41,0,0,0-3.14-26.12,2.26,2.26,0,0,1,3.93-2.22,39,39,0,0,1,3.55,29.57,100.85,100.85,0,0,0,8.89,76.79l4.64,8.37a72.26,72.26,0,0,0,63.18,37.21h61.7a2.26,2.26,0,0,1,0,4.51Z"/><path class="cls-9" d="M239,309.09H380.35l-2.16,2.16a18.44,18.44,0,0,1-13,5.4H253.87A18.44,18.44,0,0,1,239,309.09Z"/><circle class="cls-13" cx="300.72" cy="301.74" r="30.58"/><path class="cls-11" d="M300.72,325.26a23.52,23.52,0,1,1,23.52-23.52A23.55,23.55,0,0,1,300.72,325.26Zm0-44.53a21,21,0,1,0,21,21A21,21,0,0,0,300.72,280.73Z"/><path class="cls-11" d="M316,303H285.45a1.25,1.25,0,0,1,0-2.5H316a1.25,1.25,0,0,1,0,2.5Z"/><path class="cls-11" d="M313.36,298H288.08a1.25,1.25,0,1,1,0-2.5h25.28a1.25,1.25,0,0,1,0,2.5Z"/><path class="cls-11" d="M309.83,293H291.61a1.26,1.26,0,0,1,0-2.51h18.22a1.26,1.26,0,0,1,0,2.51Z"/><path class="cls-11" d="M305.63,288h-9.82a1.25,1.25,0,1,1,0-2.5h9.82a1.25,1.25,0,0,1,0,2.5Z"/><path class="cls-11" d="M313.36,308H288.08a1.26,1.26,0,0,1,0-2.51h25.28a1.26,1.26,0,0,1,0,2.51Z"/><path class="cls-11" d="M309.83,313H291.61a1.25,1.25,0,0,1,0-2.5h18.22a1.25,1.25,0,0,1,0,2.5Z"/><path class="cls-11" d="M305.63,318h-9.82a1.25,1.25,0,1,1,0-2.5h9.82a1.25,1.25,0,0,1,0,2.5Z"/><path class="cls-15" d="M333.72,235.51h0A93,93,0,0,0,285.45,222h-5.71c-29,0-53.59,23.73-53.57,52.72A52.47,52.47,0,0,0,239,309.09H380.35l-5.42-19.29A92.92,92.92,0,0,0,333.72,235.51Z"/><path class="cls-10" d="M325.57,255.21h0a68.12,68.12,0,0,0-35.35-9.9H286c-21.24,0-39.24,17.37-39.23,38.61a38.47,38.47,0,0,0,9.38,25.17H359.71l-4-14.12A68.09,68.09,0,0,0,325.57,255.21Z"/><path class="cls-11" d="M326.22,301.3H278.63a1.36,1.36,0,1,1,0-2.71h47.59a1.36,1.36,0,0,1,0,2.71Z"/><path class="cls-11" d="M324.75,295.94H277.16a1.35,1.35,0,1,1,0-2.7h47.59a1.35,1.35,0,1,1,0,2.7Z"/><path class="cls-11" d="M323.28,290.59H275.69a1.36,1.36,0,0,1,0-2.71h47.59a1.36,1.36,0,1,1,0,2.71Z"/><path class="cls-11" d="M321.82,285.23H274.23a1.36,1.36,0,0,1,0-2.71h47.59a1.36,1.36,0,0,1,0,2.71Z"/><path class="cls-11" d="M320.35,279.87H272.76a1.36,1.36,0,0,1,0-2.71h47.59a1.36,1.36,0,0,1,0,2.71Z"/><path class="cls-9" d="M189.49,208.54H316.64A15,15,0,0,1,306,212.93H201.26a18,18,0,0,1-11.77-4.39Z"/><path class="cls-10" d="M113.22,159.82H75.33V135.54h8.22A48.22,48.22,0,0,1,104,140.08l6.09,2.84a8.91,8.91,0,0,1,4.86,10.35Z"/><rect class="cls-14" x="71.34" y="135.54" width="3.98" height="24.28"/><rect class="cls-8" x="69.31" y="135.54" width="2.03" height="24.28"/><path class="cls-12" d="M376.54,205.06a1.35,1.35,0,1,0-1.92-1.91l-11.33,11.33h3.83Z"/><path class="cls-8" d="M363.29,214.48l-18.35,18.35a1.35,1.35,0,0,0,1.91,1.92l20.27-20.27Z"/><path class="cls-8" d="M307.86,219.63H231.6a2.26,2.26,0,1,1,0-4.51h76.26a20.27,20.27,0,0,0,14.42-6,24.77,24.77,0,0,1,17.61-7.29h74.18a2.26,2.26,0,0,1,0,4.51H339.89a20.27,20.27,0,0,0-14.42,6A24.76,24.76,0,0,1,307.86,219.63Z"/><polygon class="cls-9" points="94.27 159.82 113.22 159.82 112.78 161.87 93.69 161.87 94.27 159.82"/><rect class="cls-16" x="312.9" y="103.22" width="133.35" height="98.63"/><rect class="cls-16" x="309.08" y="87.13" width="140.98" height="16.09"/><rect class="cls-17" x="312.9" y="103.22" width="133.35" height="7.82"/><path class="cls-18" d="M212.2,166.67l-63.75,19.05a22.54,22.54,0,0,0-12.88,33.2l43.67,72.81,24.81-11-35.66-67.8L241,197.76a23.8,23.8,0,0,0,17.62-31.09H212.2Z"/><path class="cls-19" d="M200.83,285.8,199,283l-14.09,6.25,3.31,6,15.72-4.41C202.94,289.14,201.93,287.45,200.83,285.8Z"/><path class="cls-8" d="M197,298l-1.31,3.35,1.75-1.24a4.09,4.09,0,0,1,2.37-.75H208a81.29,81.29,0,0,0-4.09-8.46l-15.72,4.41.95,1.73h7.16A.7.7,0,0,1,197,298Z"/><path class="cls-7" d="M178.89,312.36H212.2l-.61-2.36A80.23,80.23,0,0,0,208,299.32h-8.23a4.09,4.09,0,0,0-2.37.75l-1.75,1.24L197,298a.7.7,0,0,0-.66-1h-7.16l-5.29,5a12.92,12.92,0,0,1-8.85,3.51h-3.6a9.35,9.35,0,0,0-8.2,4.87l6.87,1.23A50.13,50.13,0,0,0,178.89,312.36Z"/><path class="cls-8" d="M178.89,312.36a50.13,50.13,0,0,1-8.82-.78l-6.87-1.23a9.47,9.47,0,0,0-1.14,4.14l10.5.95c1.66.15,3.32.22,5,.22h35.5l-.85-3.3Z"/><polygon class="cls-7" points="198.97 282.98 184.88 289.23 186.4 292 201.75 287.22 198.97 282.98"/><path class="cls-19" d="M198.05,53.89,196.12,43a7.66,7.66,0,0,0-7.55-6.34h-11l1,5.2a28.1,28.1,0,0,1-.2,11.37l-.48,2.12a1.44,1.44,0,0,0,1.4,1.76h2.22a15.25,15.25,0,0,0,24,8l13.62-10.46-7.23,5.05A8.89,8.89,0,0,1,198.05,53.89Z"/><path class="cls-2" d="M176.88,32.86l.71,3.75h11A7.66,7.66,0,0,1,196.12,43l1.93,10.94a8.89,8.89,0,0,0,13.83,5.74l7.23-5.05h0V32.86Z"/><polygon class="cls-7" points="219.11 54.58 205.49 65.04 207.3 70.25 219.11 54.58 219.11 54.58"/><polygon class="cls-19" points="228.64 69.03 219.11 54.58 207.3 70.25 210.39 79.11 228.64 69.03"/><path class="cls-7" d="M185.78,45.25c.21,1.25-.17,2.36-.85,2.47s-1.39-.82-1.6-2.07.18-2.36.85-2.47S185.57,44,185.78,45.25Z"/><path class="cls-7" d="M182.55,40.84A3.23,3.23,0,0,1,186,41c1.05.7,2-1,1-1.7a5.21,5.21,0,0,0-5.46-.16,1,1,0,0,0,1,1.7Z"/><path class="cls-18" d="M205.49,57l-4.16,11.86a.56.56,0,0,0,.59.74h0a9.92,9.92,0,0,0,7.43-4.9l5.28-9.15Z"/><path class="cls-10" d="M201.42,38.86l2.29,13a3.61,3.61,0,0,0,4.81,2.76l22.59-8.37V30.08A30.08,30.08,0,0,0,201,0h0A30.07,30.07,0,0,0,171,29.17h18.9A11.73,11.73,0,0,1,201.42,38.86Z"/><path class="cls-8" d="M219.71,24.42a4,4,0,0,1-3.6-2.18A17,17,0,0,0,201,13.08,4.06,4.06,0,0,1,201,5,25.06,25.06,0,0,1,223.3,18.48a4.06,4.06,0,0,1-3.59,5.94Z"/><path class="cls-8" d="M188.61,17.09a4.06,4.06,0,0,1-2.4-7.34l.19-.13a4.06,4.06,0,0,1,4.73,6.6l-.13.09A4,4,0,0,1,188.61,17.09Z"/><path class="cls-9" d="M208.52,54.61a3.61,3.61,0,0,1-4.81-2.76l-2.29-13a11.73,11.73,0,0,0-11.55-9.69H171c0,.3,0,.6,0,.91v2.78h17.92a9,9,0,0,1,8.88,7.45L200,53.2a7.21,7.21,0,0,0,10,5.36L229,50.26a3.6,3.6,0,0,0,2.16-3.3v-.72Z"/><path class="cls-6" d="M206.67,159.73l5.53-24.19L204.26,92a12.25,12.25,0,0,1,6.13-12.93L228.64,69a6.55,6.55,0,0,1,7.43.76h0a76,76,0,0,1,26.22,50.87l3.43,38.22a7.14,7.14,0,0,1-7.11,7.79H212.2A5.67,5.67,0,0,1,206.67,159.73Z"/><path class="cls-20" d="M234.19,87.11l.16.59a26.21,26.21,0,0,1-3.85,21.52l-18.3,26.32-3.72-20.38Z"/><polygon class="cls-6" points="208.68 74.2 203.66 76.79 208.68 82.2 210.39 79.11 208.68 74.2"/><polygon class="cls-4" points="203.66 76.79 202.52 86.04 207.69 81.14 203.66 76.79"/><polygon class="cls-21" points="231.6 68.21 226.28 63.52 207.3 73.9 209.89 84.87 231.6 68.21"/><path class="cls-19" d="M124.43,145.22H110.27A4.78,4.78,0,0,0,105.5,150v8.84a4.77,4.77,0,0,0,4.77,4.77h11.46v-3.52h0a13,13,0,0,0,9.21-3.81l1.72-1.72Z"/><polygon class="cls-19" points="124.43 145.22 132.66 154.56 168.01 146.34 163.12 133.26 124.43 145.22"/><polygon class="cls-2" points="163.12 133.26 161.4 133.8 160.84 148.01 168.01 146.34 163.12 133.26"/><path class="cls-6" d="M230.81,82.68h0a11.08,11.08,0,0,0-15.24,1.48L178.89,126.7l-6.62,2.23,6.15,16.47,3.48-.75a28.07,28.07,0,0,0,14.4-8.09L232,99.05A11.09,11.09,0,0,0,230.81,82.68Z"/><path class="cls-22" d="M178.62,145.93l-.2-.53-6.15-16.47-.61-1.63a1.8,1.8,0,0,0-2.32-1l-6.07,2.26a1.81,1.81,0,0,0-1.05,2.33l.49,1.32,5.76,15.4.71,1.9a1.8,1.8,0,0,0,2.32,1l6.06-2.26A1.8,1.8,0,0,0,178.62,145.93Z"/><path class="cls-21" d="M217.88,85.93a11.18,11.18,0,0,1,13.72-2.56c-.25-.24-.51-.47-.79-.69h0a11.08,11.08,0,0,0-15.24,1.48L178.89,126.7l-6.62,2.23,1,2.65,7.45-2.51Z"/><path class="cls-7" d="M126.38,160.07a4.07,4.07,0,0,1,5.51-1.61h0l-.24-.16-9.08-5a4.06,4.06,0,0,0-3.9,7.12l9.06,5A4.05,4.05,0,0,1,126.38,160.07Z"/><path class="cls-11" d="M129.71,165.93a4.05,4.05,0,0,0,2.2-7.46h0a4.05,4.05,0,0,0-4.14,7h0A4,4,0,0,0,129.71,165.93Z"/><rect id="bg" class="cls-23" x="348.84" y="124.74" width="56.18" height="56.18" rx="10.38"/><path class="cls-8" d="M382.28,162.77H375a1.15,1.15,0,0,1-1.15-1.16v-1.09a1.15,1.15,0,0,1,1.15-1.16h6.27a1.15,1.15,0,0,0,1.15-1.09h0v-21.8a.26.26,0,0,0-.22-.26h0a.26.26,0,0,0-.28.26c0,3.43-.06,12.12,0,14.78.08,3.63-2.39,5-4.06,5.07h-4.3a5.15,5.15,0,0,1-5.6-5.59v-9.84a1.15,1.15,0,0,1,1.15-1.16h1.1a1.16,1.16,0,0,1,1.15,1.16v10.05a2.26,2.26,0,0,0,.46,1.44,2.35,2.35,0,0,0,1.75.54h4.18c.53-.07.8-.62.78-1.59-.07-3.25,0-15.43,0-16v-.22a1.12,1.12,0,0,1,.31-.77l.14-.16a4.42,4.42,0,0,1,6.24-.15l.2.16a1.17,1.17,0,0,1,.41.89v23.28C385.77,160.48,384.63,162.77,382.28,162.77Z"/><circle id="object3" class="cls-8" cx="370.59" cy="160.88" r="2.59"/><g id="object2"><rect class="cls-8" x="367.69" y="134.93" width="4.17" height="4.02" transform="translate(-0.36 0.96) rotate(-0.15)"/><ellipse class="cls-8" cx="367.83" cy="134.52" rx="1.03" ry="1.19" transform="translate(-0.35 0.96) rotate(-0.15)"/><ellipse class="cls-8" cx="369.2" cy="134.08" rx="1.03" ry="1.19" transform="translate(-0.35 0.96) rotate(-0.15)"/><ellipse class="cls-8" cx="370.36" cy="134.06" rx="1.03" ry="1.19" transform="translate(-0.35 0.97) rotate(-0.15)"/><ellipse class="cls-8" cx="371.82" cy="134.57" rx="1.03" ry="1.19" transform="translate(-0.35 0.97) rotate(-0.15)"/></g><g id="typeface"><path class="cls-8" d="M369.64,172.56a.2.2,0,0,1-.09.05h-.62l-.11,0-.07-.06a.41.41,0,0,1-.05-.09.3.3,0,0,1,0-.1l-.07-.34a.68.68,0,0,1-.17.23,1.46,1.46,0,0,1-.3.22,2,2,0,0,1-.41.16,1.59,1.59,0,0,1-.5.07,1.52,1.52,0,0,1-.69-.15,1.6,1.6,0,0,1-.51-.42,1.69,1.69,0,0,1-.32-.61,2.55,2.55,0,0,1-.1-.74v-2.25a.28.28,0,0,1,.05-.2.21.21,0,0,1,.18-.07h.8a.32.32,0,0,1,.2.05.25.25,0,0,1,.06.2v2.24a.66.66,0,0,0,.05.28.73.73,0,0,0,.16.23.6.6,0,0,0,.22.16.66.66,0,0,0,.27.06,1,1,0,0,0,.54-.17.78.78,0,0,0,.21-.23.67.67,0,0,0,.08-.33v-2.23a.5.5,0,0,1,0-.12.22.22,0,0,1,.07-.09l.08,0h.87a.29.29,0,0,1,.21.07.27.27,0,0,1,.07.2v3.84a.21.21,0,0,1,0,.12.24.24,0,0,1-.08.09Z"/><path class="cls-8" d="M370.64,168.31l.1-.05h.61a.2.2,0,0,1,.11,0,.13.13,0,0,1,.07.06.22.22,0,0,1,.05.08.42.42,0,0,1,0,.1l.07.3a2.17,2.17,0,0,1,.15-.22,1.21,1.21,0,0,1,.24-.2,1.5,1.5,0,0,1,.36-.15,1.65,1.65,0,0,1,.48-.06,1.61,1.61,0,0,1,.39,0,1,1,0,0,1,.32.13,1.05,1.05,0,0,1,.27.2,2.15,2.15,0,0,1,.23.28.9.9,0,0,1,.19-.22,1.41,1.41,0,0,1,.31-.21,1.59,1.59,0,0,1,.4-.16,1.73,1.73,0,0,1,.47-.06,1.48,1.48,0,0,1,.68.15,1.38,1.38,0,0,1,.49.41,1.92,1.92,0,0,1,.29.61,2.94,2.94,0,0,1,.09.74v2.25a.34.34,0,0,1-.05.2.21.21,0,0,1-.18.07H376a.32.32,0,0,1-.2-.05.25.25,0,0,1-.06-.2V170.1a.77.77,0,0,0,0-.27.86.86,0,0,0-.13-.23.56.56,0,0,0-.2-.14.6.6,0,0,0-.27-.06.64.64,0,0,0-.24,0,.8.8,0,0,0-.21.15.55.55,0,0,0-.14.22.64.64,0,0,0-.06.28v2.25a.28.28,0,0,1-.05.2.21.21,0,0,1-.18.07h-.8a.32.32,0,0,1-.2-.05.25.25,0,0,1-.06-.2V170.1a.77.77,0,0,0,0-.27.84.84,0,0,0-.12-.23.67.67,0,0,0-.46-.2.69.69,0,0,0-.24,0,.77.77,0,0,0-.21.14.69.69,0,0,0-.16.22.9.9,0,0,0-.08.28v2.27a.25.25,0,0,1,0,.12.2.2,0,0,1-.06.09l-.09,0h-.87a.29.29,0,0,1-.21-.07.32.32,0,0,1-.07-.2v-3.84a.21.21,0,0,1,0-.12.24.24,0,0,1,.08-.09Z"/><path class="cls-8" d="M378.3,168.31a1.26,1.26,0,0,1,.14-.6,1.6,1.6,0,0,1,.36-.49,2.09,2.09,0,0,1,.53-.34,1.68,1.68,0,0,1,.63-.12H380a.27.27,0,0,1,.18.07.3.3,0,0,1,.06.2v.65a.32.32,0,0,1-.07.22.21.21,0,0,1-.17.08H380a.32.32,0,0,0-.14,0,.37.37,0,0,0-.12.07.39.39,0,0,0-.08.1.31.31,0,0,0,0,.13v.4h.54a.24.24,0,0,1,.18.06.28.28,0,0,1,.06.2v.63a.34.34,0,0,1-.06.22.21.21,0,0,1-.18.07h-.54v2.46a.23.23,0,0,1-.09.2.28.28,0,0,1-.19.07h-.74a.28.28,0,0,1-.2-.08.25.25,0,0,1-.07-.19v-2.46h-.36a.25.25,0,0,1-.19-.07.29.29,0,0,1-.08-.22V169a.25.25,0,0,1,.08-.2.29.29,0,0,1,.19-.06h.36Z"/><path class="cls-8" d="M380.73,170.44a2.43,2.43,0,0,1,.08-.61,1.87,1.87,0,0,1,.23-.54,1.93,1.93,0,0,1,.35-.46,1.9,1.9,0,0,1,.45-.34,2.14,2.14,0,0,1,.54-.23,2.49,2.49,0,0,1,.61-.08,2.3,2.3,0,0,1,1.59.65,2.19,2.19,0,0,1,.66,1.61,2,2,0,0,1-.08.6,2.43,2.43,0,0,1-.22.55,2.22,2.22,0,0,1-.36.45,1.7,1.7,0,0,1-.45.35,2.14,2.14,0,0,1-.54.23,2.35,2.35,0,0,1-.6.08,2.49,2.49,0,0,1-.61-.08,2.14,2.14,0,0,1-.54-.23,1.7,1.7,0,0,1-.45-.35,1.88,1.88,0,0,1-.35-.45,2.06,2.06,0,0,1-.23-.55A2.35,2.35,0,0,1,380.73,170.44Zm1.25,0a1.42,1.42,0,0,0,.07.42,1.13,1.13,0,0,0,.2.34.82.82,0,0,0,.32.23.91.91,0,0,0,.41.09.87.87,0,0,0,.4-.09.79.79,0,0,0,.31-.23.94.94,0,0,0,.19-.34,1.3,1.3,0,0,0,0-.84,1.08,1.08,0,0,0-.19-.35.92.92,0,0,0-.31-.24.87.87,0,0,0-.4-.09.91.91,0,0,0-.41.09,1,1,0,0,0-.32.24,1.33,1.33,0,0,0-.2.35A1.42,1.42,0,0,0,382,170.44Z"/><path class="cls-8" d="M385.79,170.44a2.43,2.43,0,0,1,.08-.61,2.2,2.2,0,0,1,.23-.54,2.66,2.66,0,0,1,.35-.46,2.19,2.19,0,0,1,.46-.34,2,2,0,0,1,.54-.23,2.37,2.37,0,0,1,.61-.08,2.12,2.12,0,0,1,.87.18,2.09,2.09,0,0,1,.72.47,2.52,2.52,0,0,1,.48.72,2.18,2.18,0,0,1,.18.89,2.35,2.35,0,0,1-.08.6,2.45,2.45,0,0,1-.23.55,2.18,2.18,0,0,1-.35.45,2.4,2.4,0,0,1-1,.58,2.47,2.47,0,0,1-.6.08,2.37,2.37,0,0,1-.61-.08,2,2,0,0,1-.54-.23,1.93,1.93,0,0,1-.46-.35,2.58,2.58,0,0,1-.35-.45,2.45,2.45,0,0,1-.23-.55A2.35,2.35,0,0,1,385.79,170.44Zm1.26,0a1.16,1.16,0,0,0,.07.42,1,1,0,0,0,.2.34.79.79,0,0,0,.31.23.93.93,0,0,0,.42.09.9.9,0,0,0,.4-.09.87.87,0,0,0,.31-.23,1.11,1.11,0,0,0,.19-.34,1.3,1.3,0,0,0,0-.84,1.31,1.31,0,0,0-.19-.35,1,1,0,0,0-.31-.24.9.9,0,0,0-.4-.09.93.93,0,0,0-.73.33,1.1,1.1,0,0,0-.2.35A1.16,1.16,0,0,0,387.05,170.44Z"/><path class="cls-8" d="M394.1,172.19l-.21.18a1.67,1.67,0,0,1-.26.17l-.29.11a1.27,1.27,0,0,1-.34,0,2,2,0,0,1-.86-.18,2,2,0,0,1-.68-.48,2.26,2.26,0,0,1-.45-.71,2.65,2.65,0,0,1-.16-.89,2.56,2.56,0,0,1,.16-.89,2.43,2.43,0,0,1,.45-.72,1.93,1.93,0,0,1,.68-.47,2,2,0,0,1,.86-.18,1.76,1.76,0,0,1,.63.13,1.14,1.14,0,0,1,.23.15,1,1,0,0,1,.21.19v-1.44a.24.24,0,0,1,.07-.18.25.25,0,0,1,.2-.08h.77l.1,0,.09.05s.05,0,.06.09a.17.17,0,0,1,0,.1v5.14c0,.18-.09.27-.28.27h-.67l-.11,0a.15.15,0,0,1-.06,0,.22.22,0,0,1,0-.08l-.05-.12Zm-2-1.75a1.42,1.42,0,0,0,.07.42,1.13,1.13,0,0,0,.2.34.9.9,0,0,0,.32.23.91.91,0,0,0,.41.09,1.15,1.15,0,0,0,.41-.08,1.11,1.11,0,0,0,.34-.22,1,1,0,0,0,.23-.33,1.07,1.07,0,0,0,.1-.4v-.05a1.16,1.16,0,0,0-.08-.42,1.18,1.18,0,0,0-.23-.35,1.09,1.09,0,0,0-.35-.24,1,1,0,0,0-.42-.09.91.91,0,0,0-.41.09,1.08,1.08,0,0,0-.32.24,1.33,1.33,0,0,0-.2.35A1.42,1.42,0,0,0,392.09,170.44Z"/><path class="cls-8" d="M363.73,175h-2.39a.37.37,0,0,1-.38-.37v-.36a.38.38,0,0,1,.38-.38h2.06a.38.38,0,0,0,.38-.36h0v-4.21c0-.05,0-.08-.1-.09h0s-.13.07-.13.11c0,1.13,0,1,0,1.92,0,1.19-.69,1.61-1.24,1.63h-1.41A1.7,1.7,0,0,1,359,171.1v-2.4a.38.38,0,0,1,.38-.38h.36a.38.38,0,0,1,.38.38v2.45h0a.72.72,0,0,0,.15.48.79.79,0,0,0,.57.17h1.37c.18,0,.26-.2.26-.52,0-1.06,0-2.12,0-2.31v-.07a.35.35,0,0,1,.1-.26l0-.05a1.45,1.45,0,0,1,2,0l.07.06a.38.38,0,0,1,.13.29v4.69C364.87,174.29,364.5,175,363.73,175Z"/></g></g></g></svg>