<svg xmlns="http://www.w3.org/2000/svg" viewBox="0 0 608.68 608.68"><defs><style>.cls-1{fill:#af003a;}.cls-2{fill:#fff;}</style></defs><g id="Layer_2" data-name="Layer 2"><g id="logo1"><rect id="bg" class="cls-1" width="608.68" height="608.68" rx="112.41"/><path class="cls-2" d="M362.23,412H283.39a12.49,12.49,0,0,1-12.49-12.5V387.61a12.49,12.49,0,0,1,12.49-12.5h67.89a12.5,12.5,0,0,0,12.49-11.89h0V127.06a2.8,2.8,0,0,0-2.34-2.8h-.06a2.78,2.78,0,0,0-3,2.8c-.16,37.16-.57,131.31.06,160.15.85,39.35-25.85,54.41-44,54.92h-46.6c-24.66,0-38.78-9.81-46.29-18.05-14.82-16.25-14.7-37.1-14.39-42.48V174.93a12.5,12.5,0,0,1,12.5-12.5h11.87a12.5,12.5,0,0,1,12.5,12.5v108.4l-.06.49c0,1.15-.15,10.13,4.95,15.58,3.66,3.9,10,5.88,18.92,5.88h45.28c5.78-.8,8.71-6.76,8.48-17.27-.76-35.17,0-167.17,0-173.45v-2.3a12.48,12.48,0,0,1,3.31-8.41l1.56-1.7c12.21-13.21,40.29-24.56,67.63-1.62l2.13,1.78a12.51,12.51,0,0,1,4.46,9.58V364.06C400,387.14,387.76,412,362.23,412Z"/><circle id="object3" class="cls-2" cx="235.6" cy="391.52" r="28.1"/><g id="object2"><rect class="cls-2" x="204.21" y="110.39" width="45.21" height="43.57" transform="translate(-0.34 0.59) rotate(-0.15)"/><ellipse class="cls-2" cx="205.78" cy="105.9" rx="11.18" ry="12.89" transform="translate(-0.28 0.54) rotate(-0.15)"/><ellipse class="cls-2" cx="220.59" cy="101.2" rx="11.18" ry="12.89" transform="translate(-0.26 0.58) rotate(-0.15)"/><ellipse class="cls-2" cx="233.17" cy="100.94" rx="11.18" ry="12.89" transform="translate(-0.26 0.61) rotate(-0.15)"/><ellipse class="cls-2" cx="248.98" cy="106.47" rx="11.18" ry="12.89" transform="translate(-0.28 0.65) rotate(-0.15)"/></g><g id="typeface"><path class="cls-2" d="M225.34,518.06a2.24,2.24,0,0,1-1,.52,4.67,4.67,0,0,1-1,.11h-5.63a2.57,2.57,0,0,1-1.15-.24,2.49,2.49,0,0,1-.82-.65,3.6,3.6,0,0,1-.56-.93,8,8,0,0,1-.37-1.07l-.79-3.65a9.13,9.13,0,0,1-1.86,2.44,15.33,15.33,0,0,1-3.22,2.36,20.7,20.7,0,0,1-4.41,1.78,20,20,0,0,1-5.44.71,16.65,16.65,0,0,1-7.53-1.64,16.39,16.39,0,0,1-5.53-4.47,19.79,19.79,0,0,1-3.41-6.62,27.41,27.41,0,0,1-1.15-8.06v-24.4a3.23,3.23,0,0,1,.61-2.14,2.41,2.41,0,0,1,2-.73h8.6a3.34,3.34,0,0,1,2.2.54,2.83,2.83,0,0,1,.6,2.11V498.3a7.69,7.69,0,0,0,.61,3.05,8.47,8.47,0,0,0,1.66,2.53,7.69,7.69,0,0,0,2.44,1.73,7,7,0,0,0,3,.64,10.59,10.59,0,0,0,2.91-.45,9.49,9.49,0,0,0,2.9-1.4,8.08,8.08,0,0,0,2.24-2.44,6.89,6.89,0,0,0,.89-3.58V474.14a3.61,3.61,0,0,1,.24-1.27,2.07,2.07,0,0,1,.73-1,3.57,3.57,0,0,1,.91-.41,4.16,4.16,0,0,1,1-.11h8.42a2.62,2.62,0,0,1,3,2.87v41.69a2.75,2.75,0,0,1-.32,1.3,2.32,2.32,0,0,1-.88.93Z"/><path class="cls-2" d="M236.21,472.05a2.21,2.21,0,0,1,1-.52,4.8,4.8,0,0,1,1-.12h5.62a2.46,2.46,0,0,1,2,.9,3.54,3.54,0,0,1,.54.93c.14.34.26.7.39,1.07l.78,3.27a11.81,11.81,0,0,1,1.6-2.38,11.59,11.59,0,0,1,2.65-2.22,15.48,15.48,0,0,1,3.82-1.66,18.7,18.7,0,0,1,5.2-.65,18.1,18.1,0,0,1,4.26.47,13.08,13.08,0,0,1,6.39,3.6,21.75,21.75,0,0,1,2.46,3,11.57,11.57,0,0,1,2.1-2.42,16.68,16.68,0,0,1,3.33-2.3,22,22,0,0,1,4.33-1.71,18.8,18.8,0,0,1,5.06-.67,16,16,0,0,1,7.42,1.64,15.15,15.15,0,0,1,5.27,4.46,19.63,19.63,0,0,1,3.14,6.59,30,30,0,0,1,1,8.06v24.4A3.21,3.21,0,0,1,305,518a2.4,2.4,0,0,1-1.95.73h-8.61a3.34,3.34,0,0,1-2.2-.54,2.85,2.85,0,0,1-.59-2.1V491.42a8.52,8.52,0,0,0-.51-3,7.49,7.49,0,0,0-1.39-2.4,6.23,6.23,0,0,0-2.18-1.6,6.82,6.82,0,0,0-2.85-.58,6.57,6.57,0,0,0-2.68.56,7.22,7.22,0,0,0-2.24,1.54,7.45,7.45,0,0,0-1.54,2.39,7.85,7.85,0,0,0-.58,3.07v24.4a3.21,3.21,0,0,1-.62,2.14,2.4,2.4,0,0,1-1.95.73h-8.61a3.31,3.31,0,0,1-2.19-.54,2.8,2.8,0,0,1-.6-2.1V491.42a9.26,9.26,0,0,0-.47-3,7.2,7.2,0,0,0-1.34-2.4,6.1,6.1,0,0,0-2.12-1.6,6.54,6.54,0,0,0-2.81-.58,6.73,6.73,0,0,0-2.63.54,7.5,7.5,0,0,0-2.31,1.53,8.62,8.62,0,0,0-1.71,2.36,7.87,7.87,0,0,0-.8,3.06v24.58a3.54,3.54,0,0,1-.25,1.27,2,2,0,0,1-.72,1,3.57,3.57,0,0,1-.91.41,4.22,4.22,0,0,1-1,.11h-8.42a2.62,2.62,0,0,1-3-2.87V474.17a2.72,2.72,0,0,1,.32-1.3,2.3,2.3,0,0,1,.87-.93Z"/><path class="cls-2" d="M319.13,472.05a14.73,14.73,0,0,1,1.49-6.52,17.59,17.59,0,0,1,4-5.34,18.9,18.9,0,0,1,5.73-3.62,17.8,17.8,0,0,1,6.78-1.32h.75a2.49,2.49,0,0,1,1.95.77,3,3,0,0,1,.69,2.1v7.11a3.56,3.56,0,0,1-.72,2.29,2.35,2.35,0,0,1-1.92.92h-.75a4,4,0,0,0-1.49.28,4.24,4.24,0,0,0-1.26.76,3.7,3.7,0,0,0-.9,1.14,3.1,3.1,0,0,0-.33,1.43v4.29H339a2.68,2.68,0,0,1,2,.68,3,3,0,0,1,.69,2.18V486a3.38,3.38,0,0,1-.69,2.35,2.56,2.56,0,0,1-2,.74h-5.84v26.71a2.52,2.52,0,0,1-.95,2.14,3.33,3.33,0,0,1-2.07.73h-8.05a2.81,2.81,0,0,1-2.94-2.87V489.11h-3.84a3,3,0,0,1-2.1-.74,3.05,3.05,0,0,1-.8-2.35V479.2a2.71,2.71,0,0,1,.8-2.18,3.14,3.14,0,0,1,2.1-.68h3.84Z"/><path class="cls-2" d="M345.47,495.07a24.77,24.77,0,0,1,.87-6.59,24.5,24.5,0,0,1,2.46-5.87,24.16,24.16,0,0,1,3.8-4.91,23.68,23.68,0,0,1,4.94-3.79A24.72,24.72,0,0,1,370,470.64a24.24,24.24,0,0,1,17.26,7.06,24.57,24.57,0,0,1,5.22,7.74,25.08,25.08,0,0,1,1,16.21,24.61,24.61,0,0,1-2.46,5.87,24.24,24.24,0,0,1-8.73,8.73,24.38,24.38,0,0,1-12.33,3.3,25,25,0,0,1-6.58-.86,24.16,24.16,0,0,1-14.6-11.17,25,25,0,0,1-2.46-5.87A24.59,24.59,0,0,1,345.47,495.07Zm13.59,0a13.54,13.54,0,0,0,.77,4.6,11.09,11.09,0,0,0,2.16,3.71,10.19,10.19,0,0,0,3.39,2.48,10.59,10.59,0,0,0,4.49.91,10.25,10.25,0,0,0,4.38-.91,10,10,0,0,0,3.31-2.48,10.76,10.76,0,0,0,2.08-3.71,14.67,14.67,0,0,0,0-9.14,11.57,11.57,0,0,0-2.08-3.8,9.72,9.72,0,0,0-7.69-3.54,10.31,10.31,0,0,0-4.49.95,10.09,10.09,0,0,0-3.39,2.59,11.93,11.93,0,0,0-2.16,3.8A13.49,13.49,0,0,0,359.06,495.07Z"/><path class="cls-2" d="M400.34,495.07a24.57,24.57,0,0,1,3.33-12.46,24.52,24.52,0,0,1,3.8-4.91,23.68,23.68,0,0,1,4.94-3.79,24.8,24.8,0,0,1,12.44-3.27,24.29,24.29,0,0,1,17.27,7.06,24.54,24.54,0,0,1,5.21,7.74,24.07,24.07,0,0,1,1.92,9.63,24.59,24.59,0,0,1-.87,6.58,25.46,25.46,0,0,1-2.46,5.87,24.64,24.64,0,0,1-3.8,4.93,24.34,24.34,0,0,1-17.27,7.1,24.92,24.92,0,0,1-6.57-.86,24.12,24.12,0,0,1-10.81-6.24,24.64,24.64,0,0,1-3.8-4.93,25.46,25.46,0,0,1-2.46-5.87A24.59,24.59,0,0,1,400.34,495.07Zm13.6,0a13.54,13.54,0,0,0,.76,4.6,11.09,11.09,0,0,0,2.16,3.71,10.19,10.19,0,0,0,3.39,2.48,10.63,10.63,0,0,0,4.49.91,10.25,10.25,0,0,0,4.38-.91,10,10,0,0,0,3.31-2.48,10.94,10.94,0,0,0,2.09-3.71,14.86,14.86,0,0,0,0-9.14,11.78,11.78,0,0,0-2.09-3.8,9.72,9.72,0,0,0-7.69-3.54,10.34,10.34,0,0,0-4.49.95,10.09,10.09,0,0,0-3.39,2.59,11.93,11.93,0,0,0-2.16,3.8A13.48,13.48,0,0,0,413.94,495.07Z"/><path class="cls-2" d="M490.37,514a23.25,23.25,0,0,1-2.29,2,20.67,20.67,0,0,1-2.79,1.77,17,17,0,0,1-3.24,1.26,13.33,13.33,0,0,1-3.67.49,22.75,22.75,0,0,1-9.33-1.9,22.21,22.21,0,0,1-7.34-5.2,24.06,24.06,0,0,1-4.81-7.77,27.61,27.61,0,0,1,0-19.24,24,24,0,0,1,4.81-7.74,21.87,21.87,0,0,1,7.34-5.18,22.74,22.74,0,0,1,9.33-1.88,18.08,18.08,0,0,1,3.74.35,14,14,0,0,1,3.09,1,13.43,13.43,0,0,1,2.57,1.61,19.45,19.45,0,0,1,2.22,2V460.13a2.91,2.91,0,0,1,.73-2,2.74,2.74,0,0,1,2.18-.82h8.38a3,3,0,0,1,1,.2,3.53,3.53,0,0,1,1,.58,2.86,2.86,0,0,1,.72.9,2.33,2.33,0,0,1,.28,1.15v55.69c0,1.91-1,2.87-3,2.87H494a2.77,2.77,0,0,1-1.16-.19,1.81,1.81,0,0,1-.69-.54,3.53,3.53,0,0,1-.5-.89c-.15-.36-.33-.78-.56-1.25Zm-21.79-19a13.54,13.54,0,0,0,.76,4.6,11,11,0,0,0,2.18,3.71,10.33,10.33,0,0,0,7.83,3.39,11.76,11.76,0,0,0,4.48-.86,11.4,11.4,0,0,0,3.67-2.36A11.79,11.79,0,0,0,490,500a11.61,11.61,0,0,0,1.06-4.4v-.52a11.68,11.68,0,0,0-.9-4.54,12,12,0,0,0-2.47-3.8,11.85,11.85,0,0,0-3.72-2.59,11.39,11.39,0,0,0-4.64-.95,10.19,10.19,0,0,0-4.42.95,10.36,10.36,0,0,0-3.41,2.59,11.79,11.79,0,0,0-2.18,3.8A13.48,13.48,0,0,0,468.58,495.07Z"/><path class="cls-2" d="M161.31,545H135.45a4.11,4.11,0,0,1-4.1-4.1V537a4.11,4.11,0,0,1,4.1-4.1h22.27a4.1,4.1,0,0,0,4.1-3.89h0V483.35c0-.45-.56-.86-1-.92h-.36a1.55,1.55,0,0,0-1.38,1.23c-.06,12.19-.19,11.25,0,20.71.28,12.9-7.51,17.53-13.46,17.7H130.33c-8.09,0-12.72-3.22-15.19-5.92-4.86-5.33-4.82-12.17-4.72-13.94v-26a4.11,4.11,0,0,1,4.1-4.1h3.9a4.11,4.11,0,0,1,4.1,4.1v26.54l0,.16c0,.38,0,3.32,1.62,5.11,1.2,1.28,3.29,1.93,6.21,1.93h14.85c1.9-.26,2.86-2.22,2.78-5.67-.25-11.53,0-23,0-25.06v-.76a4.09,4.09,0,0,1,1.08-2.76l.51-.55c4-4.34,13.22-8.06,22.19-.53l.69.58a4.1,4.1,0,0,1,1.47,3.14v50.89C173.71,536.83,169.69,545,161.31,545Z"/></g></g></g></svg>