<svg xmlns="http://www.w3.org/2000/svg" viewBox="0 0 400.89 465.71"><defs><style>.cls-1{fill:#af003a;}</style></defs><g id="Layer_2" data-name="Layer 2"><g id="logo2"><path class="cls-1" d="M256.3,330.35H176.06a12.72,12.72,0,0,1-12.72-12.72V305.56a12.72,12.72,0,0,1,12.72-12.72h69.1a12.72,12.72,0,0,0,12.7-12.1h0V40.4a2.83,2.83,0,0,0-2.38-2.85h-.06a2.83,2.83,0,0,0-3.09,2.85c-.16,37.82-.58,133.64,0,163,.88,40.05-26.31,55.37-44.79,55.9H160.16c-25.1,0-39.47-10-47.11-18.37-15.09-16.55-15-37.77-14.64-43.24V89.11a12.71,12.71,0,0,1,12.72-12.72h12.08a12.72,12.72,0,0,1,12.72,12.72V199.44l-.07.5c0,1.16-.15,10.3,5,15.84,3.73,4,10.2,6,19.26,6h46.08c5.88-.81,8.87-6.88,8.63-17.57-.77-35.8,0-170.13,0-176.53V25.33a12.75,12.75,0,0,1,3.37-8.56L219.84,15c12.42-13.45,41-25,68.83-1.64l2.16,1.81A12.71,12.71,0,0,1,295.38,25V281.59C294.77,305.08,282.28,330.35,256.3,330.35Z"/><circle class="cls-1" cx="127.42" cy="309.54" r="28.6"/><rect class="cls-1" x="95.48" y="23.42" width="46.01" height="44.35" transform="translate(-0.12 0.31) rotate(-0.15)"/><ellipse class="cls-1" cx="97.07" cy="18.85" rx="11.38" ry="13.11" transform="translate(-0.05 0.25) rotate(-0.15)"/><ellipse class="cls-1" cx="112.15" cy="14.07" rx="11.38" ry="13.11" transform="matrix(1, 0, 0, 1, -0.04, 0.29)"/><ellipse class="cls-1" cx="124.95" cy="13.81" rx="11.38" ry="13.11" transform="matrix(1, 0, 0, 1, -0.04, 0.33)"/><ellipse class="cls-1" cx="141.04" cy="19.44" rx="11.38" ry="13.11" transform="translate(-0.05 0.37) rotate(-0.15)"/><path class="cls-1" d="M117,438.32a2.25,2.25,0,0,1-1,.53,4.82,4.82,0,0,1-1,.12h-5.72a2.67,2.67,0,0,1-1.18-.25,2.45,2.45,0,0,1-.83-.66,3.93,3.93,0,0,1-.57-.95,7,7,0,0,1-.38-1.09l-.8-3.71a9.43,9.43,0,0,1-1.89,2.48,15.9,15.9,0,0,1-3.28,2.4A20.93,20.93,0,0,1,95.75,439a20.29,20.29,0,0,1-5.54.72,16.93,16.93,0,0,1-7.66-1.67,16.52,16.52,0,0,1-5.63-4.55,20.17,20.17,0,0,1-3.47-6.73,28,28,0,0,1-1.17-8.2V393.73a3.35,3.35,0,0,1,.62-2.18,2.48,2.48,0,0,1,2-.74h8.76a3.45,3.45,0,0,1,2.24.55,2.92,2.92,0,0,1,.61,2.15v24.71a7.72,7.72,0,0,0,.62,3.09,8.8,8.8,0,0,0,1.69,2.58,7.68,7.68,0,0,0,2.48,1.76,7.21,7.21,0,0,0,3,.65,10.53,10.53,0,0,0,3-.46,9.51,9.51,0,0,0,3-1.42,7.89,7.89,0,0,0,2.27-2.49,6.9,6.9,0,0,0,.91-3.64V393.62a3.48,3.48,0,0,1,.25-1.29,2,2,0,0,1,.74-1,3.13,3.13,0,0,1,.93-.42,3.75,3.75,0,0,1,1-.12h8.57a2.67,2.67,0,0,1,3.07,2.92v42.43a2.87,2.87,0,0,1-.32,1.33,2.42,2.42,0,0,1-.9.95Z"/><path class="cls-1" d="M128,391.49a2.4,2.4,0,0,1,1-.53,5.68,5.68,0,0,1,1-.11h5.72a2.54,2.54,0,0,1,1.18.25,2.43,2.43,0,0,1,.83.66,3.52,3.52,0,0,1,.55.94c.14.35.27.72.4,1.1l.79,3.33a12,12,0,0,1,1.63-2.42,11.35,11.35,0,0,1,2.7-2.27,15.8,15.8,0,0,1,3.88-1.69,19,19,0,0,1,5.29-.66,18.19,18.19,0,0,1,4.34.48A13.15,13.15,0,0,1,161,392a13.39,13.39,0,0,1,2.94,2.26,22.38,22.38,0,0,1,2.51,3.08,11.39,11.39,0,0,1,2.14-2.45,17.31,17.31,0,0,1,3.39-2.35,22.42,22.42,0,0,1,4.4-1.74,19.13,19.13,0,0,1,5.15-.68,16.23,16.23,0,0,1,7.55,1.67,15.42,15.42,0,0,1,5.37,4.54,20.17,20.17,0,0,1,3.2,6.71,30.6,30.6,0,0,1,1.06,8.2V436a3.28,3.28,0,0,1-.63,2.18,2.43,2.43,0,0,1-2,.74h-8.76a3.36,3.36,0,0,1-2.23-.55,2.83,2.83,0,0,1-.61-2.14V411.21a8.76,8.76,0,0,0-.51-3,7.8,7.8,0,0,0-1.42-2.45,6.46,6.46,0,0,0-2.22-1.63,7,7,0,0,0-2.9-.59,6.68,6.68,0,0,0-2.73.57,7.35,7.35,0,0,0-2.28,1.58,7.66,7.66,0,0,0-1.57,2.42,8.15,8.15,0,0,0-.59,3.13V436a3.28,3.28,0,0,1-.62,2.18,2.45,2.45,0,0,1-2,.74H158.9a3.36,3.36,0,0,1-2.23-.55,2.83,2.83,0,0,1-.61-2.14V411.21a9.25,9.25,0,0,0-.48-3,7.31,7.31,0,0,0-1.36-2.45,6.24,6.24,0,0,0-2.16-1.63,6.77,6.77,0,0,0-2.86-.59,7,7,0,0,0-2.68.55,7.77,7.77,0,0,0-2.35,1.56,8.81,8.81,0,0,0-1.74,2.41,8.08,8.08,0,0,0-.82,3.11v25a3.68,3.68,0,0,1-.24,1.29,2.07,2.07,0,0,1-.74,1,3.74,3.74,0,0,1-.93.42,4.31,4.31,0,0,1-1,.11h-8.57a2.66,2.66,0,0,1-3.07-2.92V393.65a2.8,2.8,0,0,1,.32-1.32,2.33,2.33,0,0,1,.89-.95Z"/><path class="cls-1" d="M212.43,391.5a15,15,0,0,1,1.52-6.64,18.06,18.06,0,0,1,4.06-5.44,19.21,19.21,0,0,1,5.83-3.67,18.05,18.05,0,0,1,6.9-1.35h.76a2.54,2.54,0,0,1,2,.78,3,3,0,0,1,.7,2.14v7.24a3.65,3.65,0,0,1-.74,2.33,2.36,2.36,0,0,1-1.95.93h-.76a4.1,4.1,0,0,0-1.52.28,4.53,4.53,0,0,0-1.28.78A3.93,3.93,0,0,0,227,390a3.11,3.11,0,0,0-.34,1.46v4.36h5.95a2.68,2.68,0,0,1,2,.7,3.07,3.07,0,0,1,.7,2.21v6.94a3.46,3.46,0,0,1-.7,2.39,2.56,2.56,0,0,1-2,.76h-5.95V436a2.59,2.59,0,0,1-1,2.18,3.37,3.37,0,0,1-2.1.74h-8.19a2.86,2.86,0,0,1-3-2.92V408.86h-3.9a3,3,0,0,1-2.14-.76,3.09,3.09,0,0,1-.82-2.39v-6.94a2.75,2.75,0,0,1,.82-2.21,3.14,3.14,0,0,1,2.14-.7h3.9Z"/><path class="cls-1" d="M239.23,414.93a25,25,0,0,1,3.4-12.69,24.33,24.33,0,0,1,3.87-5,23.84,23.84,0,0,1,5-3.85,25,25,0,0,1,6-2.46,25.35,25.35,0,0,1,6.69-.87,24.67,24.67,0,0,1,17.57,7.18,25,25,0,0,1,5.31,7.89,25.6,25.6,0,0,1,1.06,16.49,25.45,25.45,0,0,1-2.5,6,24.19,24.19,0,0,1-3.87,5,24.54,24.54,0,0,1-5,3.87,24.76,24.76,0,0,1-12.55,3.35,25.35,25.35,0,0,1-6.69-.87,24.65,24.65,0,0,1-6-2.48,24.7,24.7,0,0,1-8.89-8.89,25.47,25.47,0,0,1-2.51-6A25.06,25.06,0,0,1,239.23,414.93Zm13.84,0a13.85,13.85,0,0,0,.78,4.68,11.28,11.28,0,0,0,2.2,3.77,10.3,10.3,0,0,0,3.45,2.52,10.8,10.8,0,0,0,4.56.93,10.41,10.41,0,0,0,4.46-.93,10,10,0,0,0,3.37-2.52,11.14,11.14,0,0,0,2.13-3.77,15,15,0,0,0,0-9.31,12.13,12.13,0,0,0-2.13-3.87,9.9,9.9,0,0,0-3.37-2.63,10.14,10.14,0,0,0-4.46-1,10.52,10.52,0,0,0-4.56,1,10.2,10.2,0,0,0-3.45,2.63,12.29,12.29,0,0,0-2.2,3.87A13.77,13.77,0,0,0,253.07,414.93Z"/><path class="cls-1" d="M295.08,414.93a24.69,24.69,0,0,1,7.26-17.69,24.1,24.1,0,0,1,5-3.85A25.31,25.31,0,0,1,320,390.06a24.72,24.72,0,0,1,17.57,7.18,25.37,25.37,0,0,1,5.31,7.89,24.5,24.5,0,0,1,1.95,9.8,25.06,25.06,0,0,1-.89,6.69,25.47,25.47,0,0,1-2.51,6,24.5,24.5,0,0,1-8.89,8.89A24.76,24.76,0,0,1,320,439.83a25.48,25.48,0,0,1-6.7-.87,25,25,0,0,1-6-2.48,24.54,24.54,0,0,1-5-3.87,24.89,24.89,0,0,1-3.87-5,25.45,25.45,0,0,1-2.5-6A25.06,25.06,0,0,1,295.08,414.93Zm13.84,0a14.09,14.09,0,0,0,.77,4.68,11.28,11.28,0,0,0,2.2,3.77,10.4,10.4,0,0,0,3.45,2.52,10.85,10.85,0,0,0,4.57.93,10.44,10.44,0,0,0,4.46-.93,10.08,10.08,0,0,0,3.37-2.52,11.12,11.12,0,0,0,2.12-3.77,15,15,0,0,0,0-9.31,12.11,12.11,0,0,0-2.12-3.87,10,10,0,0,0-3.37-2.63,10.17,10.17,0,0,0-4.46-1,10.56,10.56,0,0,0-4.57,1,10.29,10.29,0,0,0-3.45,2.63,12.29,12.29,0,0,0-2.2,3.87A14,14,0,0,0,308.92,414.93Z"/><path class="cls-1" d="M386.71,434.22a25.31,25.31,0,0,1-2.33,2,19.12,19.12,0,0,1-2.85,1.8,17.32,17.32,0,0,1-3.29,1.29,13.84,13.84,0,0,1-3.74.49,23.08,23.08,0,0,1-9.5-1.93,22.8,22.8,0,0,1-7.47-5.29,24.28,24.28,0,0,1-4.88-7.9,28,28,0,0,1,0-19.58,24.44,24.44,0,0,1,4.88-7.89A22.6,22.6,0,0,1,365,392a23.24,23.24,0,0,1,9.5-1.91,18.68,18.68,0,0,1,3.81.36,13.39,13.39,0,0,1,5.76,2.67,21.1,21.1,0,0,1,2.26,2.08v-15.8a3,3,0,0,1,.74-2.05,2.79,2.79,0,0,1,2.22-.84h8.52a3,3,0,0,1,1.05.21,3.61,3.61,0,0,1,1,.59,3,3,0,0,1,.74.91,2.45,2.45,0,0,1,.29,1.18V436c0,1.95-1,2.92-3.08,2.92h-7.42a2.87,2.87,0,0,1-1.18-.19,1.79,1.79,0,0,1-.7-.55,3.69,3.69,0,0,1-.51-.91c-.15-.36-.34-.79-.57-1.27Zm-22.18-19.29a14.09,14.09,0,0,0,.77,4.68,11.16,11.16,0,0,0,2.22,3.77,10.59,10.59,0,0,0,8,3.45,12,12,0,0,0,4.56-.87,11.68,11.68,0,0,0,3.74-2.41,12,12,0,0,0,3.64-8.09v-.53a12.13,12.13,0,0,0-.91-4.63,12.56,12.56,0,0,0-2.52-3.87,12,12,0,0,0-3.79-2.63,11.62,11.62,0,0,0-4.72-1,10.3,10.3,0,0,0-4.49,1,10.41,10.41,0,0,0-3.48,2.63,12.15,12.15,0,0,0-2.22,3.87A14,14,0,0,0,364.53,414.93Z"/><path class="cls-1" d="M51.82,465.71H25.5a4.16,4.16,0,0,1-4.17-4.17v-4a4.17,4.17,0,0,1,4.17-4.17H48.16a4.18,4.18,0,0,0,4.17-4h0V403c0-.46-.57-.87-1-.93h-.37a1.58,1.58,0,0,0-1.41,1.25c-.05,12.41-.19,11.45,0,21.07.28,13.14-7.65,17.85-13.71,18H20.28c-8.23,0-12.95-3.28-15.45-6C-.12,431-.08,424,0,422.19V395.76a4.17,4.17,0,0,1,4.17-4.17h4a4.17,4.17,0,0,1,4.17,4.17v27l0,.16c0,.39-.05,3.38,1.66,5.2,1.22,1.3,3.34,2,6.31,2H35.4c1.93-.27,2.91-2.26,2.83-5.77-.26-11.74,0-23.41,0-25.51v-.77a4.2,4.2,0,0,1,1.11-2.81l.52-.56c4.07-4.41,13.45-8.2,22.58-.54l.71.59a4.18,4.18,0,0,1,1.49,3.2v51.79C64.44,457.42,60.34,465.71,51.82,465.71Z"/></g></g></svg>